<mxfile host="65bd71144e">
    <diagram id="TdtMBjnMegQIpgWfhftg" name="Page-1">
        <mxGraphModel dx="1763" dy="2002" grid="1" gridSize="10" guides="1" tooltips="1" connect="1" arrows="1" fold="1" page="1" pageScale="1" pageWidth="850" pageHeight="1100" math="0" shadow="0">
            <root>
                <mxCell id="0"/>
                <mxCell id="1" parent="0"/>
                <mxCell id="2" value="" style="rounded=0;whiteSpace=wrap;html=1;" parent="1" vertex="1">
                    <mxGeometry x="120" y="200" width="120" height="60" as="geometry"/>
                </mxCell>
                <mxCell id="4" value="Hospital" style="rounded=0;whiteSpace=wrap;html=1;" parent="1" vertex="1">
                    <mxGeometry x="-770" y="20" width="120" height="40" as="geometry"/>
                </mxCell>
                <mxCell id="5" value="CNPJ&lt;br&gt;Nome" style="rounded=0;whiteSpace=wrap;html=1;" vertex="1" parent="1">
                    <mxGeometry x="-770" y="60" width="120" height="60" as="geometry"/>
                </mxCell>
                <mxCell id="6" value="Setor" style="rounded=0;whiteSpace=wrap;html=1;" vertex="1" parent="1">
                    <mxGeometry x="-560" y="20" width="120" height="40" as="geometry"/>
                </mxCell>
                <mxCell id="24" value="" style="edgeStyle=none;html=1;" edge="1" parent="1" source="7" target="5">
                    <mxGeometry relative="1" as="geometry"/>
                </mxCell>
                <mxCell id="70" value="" style="edgeStyle=none;html=1;" edge="1" parent="1" source="7" target="13">
                    <mxGeometry relative="1" as="geometry"/>
                </mxCell>
                <mxCell id="7" value="Código&lt;br&gt;Descrição" style="rounded=0;whiteSpace=wrap;html=1;" vertex="1" parent="1">
                    <mxGeometry x="-560" y="60" width="120" height="60" as="geometry"/>
                </mxCell>
                <mxCell id="8" value="UTI" style="rounded=0;whiteSpace=wrap;html=1;" vertex="1" parent="1">
                    <mxGeometry x="-360" y="20" width="130" height="40" as="geometry"/>
                </mxCell>
                <mxCell id="27" value="" style="edgeStyle=none;html=1;" edge="1" parent="1" source="9" target="7">
                    <mxGeometry relative="1" as="geometry"/>
                </mxCell>
                <mxCell id="9" value="Tipo&lt;br&gt;Quantidade de Leitos&lt;br&gt;Nome do Responsável" style="rounded=0;whiteSpace=wrap;html=1;" vertex="1" parent="1">
                    <mxGeometry x="-360" y="60" width="130" height="60" as="geometry"/>
                </mxCell>
                <mxCell id="10" value="Pronto Socorro" style="rounded=0;whiteSpace=wrap;html=1;" vertex="1" parent="1">
                    <mxGeometry x="-780" y="180" width="140" height="50" as="geometry"/>
                </mxCell>
                <mxCell id="11" value="Classificação de Risco" style="rounded=0;whiteSpace=wrap;html=1;" vertex="1" parent="1">
                    <mxGeometry x="-780" y="220" width="140" height="60" as="geometry"/>
                </mxCell>
                <mxCell id="12" value="Internação" style="rounded=0;whiteSpace=wrap;html=1;" vertex="1" parent="1">
                    <mxGeometry x="-570" y="180" width="140" height="40" as="geometry"/>
                </mxCell>
                <mxCell id="13" value="Código&lt;br&gt;Nome do Responsável&lt;br&gt;Nome do Acompanhante" style="rounded=0;whiteSpace=wrap;html=1;" vertex="1" parent="1">
                    <mxGeometry x="-570" y="220" width="140" height="60" as="geometry"/>
                </mxCell>
                <mxCell id="14" value="Enfermeira" style="rounded=0;whiteSpace=wrap;html=1;" vertex="1" parent="1">
                    <mxGeometry x="-350" y="180" width="120" height="40" as="geometry"/>
                </mxCell>
                <mxCell id="78" value="" style="edgeStyle=none;html=1;entryX=0.5;entryY=0;entryDx=0;entryDy=0;" edge="1" parent="1" source="15" target="18">
                    <mxGeometry relative="1" as="geometry">
                        <mxPoint x="-500" y="370" as="targetPoint"/>
                    </mxGeometry>
                </mxCell>
                <mxCell id="15" value="CRE&lt;br&gt;Nome" style="rounded=0;whiteSpace=wrap;html=1;" vertex="1" parent="1">
                    <mxGeometry x="-350" y="220" width="120" height="60" as="geometry"/>
                </mxCell>
                <mxCell id="16" value="Médico" style="rounded=0;whiteSpace=wrap;html=1;" vertex="1" parent="1">
                    <mxGeometry x="-563" y="540" width="120" height="40" as="geometry"/>
                </mxCell>
                <mxCell id="40" value="" style="edgeStyle=none;html=1;" edge="1" parent="1" source="17" target="22">
                    <mxGeometry relative="1" as="geometry"/>
                </mxCell>
                <mxCell id="17" value="CRM&lt;br&gt;Nome&lt;br&gt;Telefone" style="rounded=0;whiteSpace=wrap;html=1;" vertex="1" parent="1">
                    <mxGeometry x="-563" y="580" width="120" height="60" as="geometry"/>
                </mxCell>
                <mxCell id="18" value="Enf. Chefe" style="rounded=0;whiteSpace=wrap;html=1;" vertex="1" parent="1">
                    <mxGeometry x="-562" y="380" width="120" height="40" as="geometry"/>
                </mxCell>
                <mxCell id="39" style="edgeStyle=none;html=1;" edge="1" parent="1">
                    <mxGeometry relative="1" as="geometry">
                        <mxPoint x="-495" y="530" as="targetPoint"/>
                        <mxPoint x="-495" y="480" as="sourcePoint"/>
                    </mxGeometry>
                </mxCell>
                <mxCell id="19" value="Nome" style="rounded=0;whiteSpace=wrap;html=1;" vertex="1" parent="1">
                    <mxGeometry x="-562" y="420" width="120" height="60" as="geometry"/>
                </mxCell>
                <mxCell id="20" value="Plano de Saúde" style="rounded=0;whiteSpace=wrap;html=1;" vertex="1" parent="1">
                    <mxGeometry x="-350" y="370" width="120" height="40" as="geometry"/>
                </mxCell>
                <mxCell id="21" value="Código&lt;br&gt;Nome&lt;br&gt;Telefone&lt;br&gt;Operadora" style="rounded=0;whiteSpace=wrap;html=1;" vertex="1" parent="1">
                    <mxGeometry x="-350" y="410" width="120" height="80" as="geometry"/>
                </mxCell>
                <mxCell id="22" value="Paciente" style="rounded=0;whiteSpace=wrap;html=1;" vertex="1" parent="1">
                    <mxGeometry x="-563" y="740" width="120" height="40" as="geometry"/>
                </mxCell>
                <mxCell id="23" value="CPF&lt;br&gt;Nome&lt;br&gt;Cod. Credenciado&lt;br&gt;Telefone" style="rounded=0;whiteSpace=wrap;html=1;" vertex="1" parent="1">
                    <mxGeometry x="-563" y="780" width="120" height="60" as="geometry"/>
                </mxCell>
                <mxCell id="25" value="N" style="text;html=1;align=center;verticalAlign=middle;resizable=0;points=[];autosize=1;strokeColor=none;fillColor=none;" vertex="1" parent="1">
                    <mxGeometry x="-592" y="63" width="30" height="30" as="geometry"/>
                </mxCell>
                <mxCell id="26" value="1" style="text;html=1;align=center;verticalAlign=middle;resizable=0;points=[];autosize=1;strokeColor=none;fillColor=none;" vertex="1" parent="1">
                    <mxGeometry x="-382" y="63" width="30" height="30" as="geometry"/>
                </mxCell>
                <mxCell id="59" value="" style="curved=1;endArrow=classic;html=1;exitX=0.993;exitY=0.395;exitDx=0;exitDy=0;exitPerimeter=0;entryX=0.993;entryY=0.631;entryDx=0;entryDy=0;entryPerimeter=0;" edge="1" parent="1" source="23" target="17">
                    <mxGeometry width="50" height="50" relative="1" as="geometry">
                        <mxPoint x="-410" y="580" as="sourcePoint"/>
                        <mxPoint x="-360" y="530" as="targetPoint"/>
                        <Array as="points">
                            <mxPoint x="-360" y="810"/>
                            <mxPoint x="-360" y="750"/>
                            <mxPoint x="-360" y="640"/>
                            <mxPoint x="-380" y="610"/>
                        </Array>
                    </mxGeometry>
                </mxCell>
                <mxCell id="60" value="N" style="text;html=1;align=center;verticalAlign=middle;resizable=0;points=[];autosize=1;strokeColor=none;fillColor=none;" vertex="1" parent="1">
                    <mxGeometry x="-446" y="592" width="30" height="30" as="geometry"/>
                </mxCell>
                <mxCell id="61" value="N" style="text;html=1;align=center;verticalAlign=middle;resizable=0;points=[];autosize=1;strokeColor=none;fillColor=none;" vertex="1" parent="1">
                    <mxGeometry x="-447" y="780" width="30" height="30" as="geometry"/>
                </mxCell>
                <mxCell id="62" value="&lt;br&gt;&lt;br&gt;1 Hospital &amp;lt;-&amp;gt; Setor (N -&amp;gt; 1): Muitos setores podem estar associados a um único hospital. Um hospital pode ter vários setores, como UTI, Pronto Socorro e Internação, mas cada setor está associado a apenas um hospital.&lt;br&gt;2 Setor &amp;lt;-&amp;gt; UTI (N -&amp;gt; 1): Muitos setores podem estar associados a uma única UTI. Um setor pode ser designado como uma UTI, mas cada UTI está associada a apenas um setor.&lt;br&gt;3 Setor &amp;lt;-&amp;gt; Pronto Socorro (N -&amp;gt; 1): Muitos setores podem estar associados a um único Pronto Socorro. Um setor pode ser designado como Pronto Socorro, mas cada Pronto Socorro está associado a apenas um setor.&lt;br&gt;4 Setor &amp;lt;-&amp;gt; Internação (N -&amp;gt; 1): Muitos setores podem estar associados a uma única área de Internação. Um setor pode ser designado como área de Internação, mas cada área de Internação está associada a apenas um setor.&lt;br&gt;5 Enfermeira &amp;lt;-&amp;gt; Setor (N -&amp;gt; 1): Cada enfermeira pode ser responsável por vários setores, mas cada setor tem apenas uma enfermeira responsável. &lt;br&gt;6 Enfermeira &amp;lt;-&amp;gt; Enfermeira Chefe (1 -&amp;gt; 1): Cada enfermeira reporta-se a uma única enfermeira-chefe.&lt;br&gt;7 Hospital &amp;lt;-&amp;gt; Plano de Saúde (N -&amp;gt; N): Um hospital pode atender a vários planos de saúde, e um plano de saúde pode ser atendido por vários hospitais. &lt;br&gt;8 Plano de Saúde &amp;lt;-&amp;gt; Médico (N -&amp;gt; N): Cada plano de saúde pode ter vários médicos credenciados, e um médico pode ser credenciado a vários planos de saúde.&lt;br&gt;9 Médico &amp;lt;-&amp;gt; Paciente (N -&amp;gt; N): Um médico pode realizar consultas para vários pacientes, e um paciente pode ser atendido por vários médicos.&lt;br&gt;10 Paciente &amp;lt;-&amp;gt; Plano de Saúde (N -&amp;gt; N): Um paciente pode ser credenciado a vários planos de saúde, e um plano de saúde pode ter vários pacientes credenciados." style="text;html=1;strokeColor=none;fillColor=none;spacing=5;spacingTop=-20;whiteSpace=wrap;overflow=hidden;rounded=0;" vertex="1" parent="1">
                    <mxGeometry x="-842" y="840" width="842" height="250" as="geometry"/>
                </mxCell>
                <mxCell id="63" value="1" style="text;html=1;align=center;verticalAlign=middle;resizable=0;points=[];autosize=1;strokeColor=none;fillColor=none;" vertex="1" parent="1">
                    <mxGeometry x="-654" y="62" width="30" height="30" as="geometry"/>
                </mxCell>
                <mxCell id="64" value="N" style="text;html=1;align=center;verticalAlign=middle;resizable=0;points=[];autosize=1;strokeColor=none;fillColor=none;" vertex="1" parent="1">
                    <mxGeometry x="-442" y="63" width="30" height="30" as="geometry"/>
                </mxCell>
                <mxCell id="65" value="N" style="text;html=1;align=center;verticalAlign=middle;resizable=0;points=[];autosize=1;strokeColor=none;fillColor=none;" vertex="1" parent="1">
                    <mxGeometry x="-592" y="96" width="30" height="30" as="geometry"/>
                </mxCell>
                <mxCell id="66" value="1" style="text;html=1;align=center;verticalAlign=middle;resizable=0;points=[];autosize=1;strokeColor=none;fillColor=none;" vertex="1" parent="1">
                    <mxGeometry x="-714" y="145" width="30" height="30" as="geometry"/>
                </mxCell>
                <mxCell id="68" value="" style="endArrow=classic;html=1;entryX=0.5;entryY=0;entryDx=0;entryDy=0;" edge="1" parent="1" target="10">
                    <mxGeometry width="50" height="50" relative="1" as="geometry">
                        <mxPoint x="-560" y="120" as="sourcePoint"/>
                        <mxPoint x="-360" y="-70" as="targetPoint"/>
                        <Array as="points">
                            <mxPoint x="-560" y="90"/>
                        </Array>
                    </mxGeometry>
                </mxCell>
                <mxCell id="69" value="" style="endArrow=classic;html=1;entryX=0.5;entryY=0;entryDx=0;entryDy=0;" edge="1" parent="1" target="10">
                    <mxGeometry width="50" height="50" relative="1" as="geometry">
                        <mxPoint x="-560" y="90" as="sourcePoint"/>
                        <mxPoint x="-710" y="180" as="targetPoint"/>
                        <Array as="points">
                            <mxPoint x="-560" y="90"/>
                        </Array>
                    </mxGeometry>
                </mxCell>
                <mxCell id="71" value="" style="edgeStyle=none;html=1;entryX=0.5;entryY=0;entryDx=0;entryDy=0;" edge="1" parent="1" source="7" target="12">
                    <mxGeometry relative="1" as="geometry"/>
                </mxCell>
                <mxCell id="72" value="N" style="text;html=1;align=center;verticalAlign=middle;resizable=0;points=[];autosize=1;strokeColor=none;fillColor=none;" vertex="1" parent="1">
                    <mxGeometry x="-522" y="116" width="30" height="30" as="geometry"/>
                </mxCell>
                <mxCell id="73" value="1" style="text;html=1;align=center;verticalAlign=middle;resizable=0;points=[];autosize=1;strokeColor=none;fillColor=none;" vertex="1" parent="1">
                    <mxGeometry x="-524" y="155" width="30" height="30" as="geometry"/>
                </mxCell>
                <mxCell id="74" value="" style="endArrow=classic;html=1;entryX=1;entryY=1;entryDx=0;entryDy=0;exitX=0;exitY=0;exitDx=0;exitDy=0;" edge="1" parent="1" source="14" target="7">
                    <mxGeometry width="50" height="50" relative="1" as="geometry">
                        <mxPoint x="-410" y="-20" as="sourcePoint"/>
                        <mxPoint x="-360" y="-70" as="targetPoint"/>
                    </mxGeometry>
                </mxCell>
                <mxCell id="75" value="N" style="text;html=1;align=center;verticalAlign=middle;resizable=0;points=[];autosize=1;strokeColor=none;fillColor=none;" vertex="1" parent="1">
                    <mxGeometry x="-432" y="109" width="30" height="30" as="geometry"/>
                </mxCell>
                <mxCell id="76" value="1" style="text;html=1;align=center;verticalAlign=middle;resizable=0;points=[];autosize=1;strokeColor=none;fillColor=none;" vertex="1" parent="1">
                    <mxGeometry x="-370" y="150" width="30" height="30" as="geometry"/>
                </mxCell>
                <mxCell id="79" value="1" style="text;html=1;align=center;verticalAlign=middle;resizable=0;points=[];autosize=1;strokeColor=none;fillColor=none;" vertex="1" parent="1">
                    <mxGeometry x="-380" y="270" width="30" height="30" as="geometry"/>
                </mxCell>
                <mxCell id="81" value="" style="curved=1;endArrow=classic;html=1;exitX=0.5;exitY=0;exitDx=0;exitDy=0;entryX=1;entryY=0.5;entryDx=0;entryDy=0;" edge="1" parent="1" source="4" target="20">
                    <mxGeometry width="50" height="50" relative="1" as="geometry">
                        <mxPoint x="-710" y="20" as="sourcePoint"/>
                        <mxPoint x="-120" y="421.66668701171875" as="targetPoint"/>
                        <Array as="points">
                            <mxPoint x="-660" y="10"/>
                            <mxPoint x="-430"/>
                            <mxPoint x="-130"/>
                            <mxPoint x="-110" y="110"/>
                            <mxPoint x="-100" y="410"/>
                        </Array>
                    </mxGeometry>
                </mxCell>
                <mxCell id="82" value="N" style="text;html=1;align=center;verticalAlign=middle;resizable=0;points=[];autosize=1;strokeColor=none;fillColor=none;" vertex="1" parent="1">
                    <mxGeometry x="-725" y="-2" width="30" height="30" as="geometry"/>
                </mxCell>
                <mxCell id="83" value="N" style="text;html=1;align=center;verticalAlign=middle;resizable=0;points=[];autosize=1;strokeColor=none;fillColor=none;" vertex="1" parent="1">
                    <mxGeometry x="-220" y="370" width="30" height="30" as="geometry"/>
                </mxCell>
                <mxCell id="85" value="" style="curved=1;endArrow=classic;html=1;exitX=0.212;exitY=-0.027;exitDx=0;exitDy=0;exitPerimeter=0;entryX=0.993;entryY=0.631;entryDx=0;entryDy=0;entryPerimeter=0;" edge="1" parent="1" source="60">
                    <mxGeometry width="50" height="50" relative="1" as="geometry">
                        <mxPoint x="-223.83999999999992" y="603.6999999999998" as="sourcePoint"/>
                        <mxPoint x="-223.83999999999992" y="417.8600000000001" as="targetPoint"/>
                        <Array as="points">
                            <mxPoint x="-140" y="610"/>
                            <mxPoint x="-140" y="550"/>
                            <mxPoint x="-140" y="440"/>
                            <mxPoint x="-160" y="410"/>
                        </Array>
                    </mxGeometry>
                </mxCell>
                <mxCell id="86" value="N" style="text;html=1;align=center;verticalAlign=middle;resizable=0;points=[];autosize=1;strokeColor=none;fillColor=none;" vertex="1" parent="1">
                    <mxGeometry x="-446" y="562" width="30" height="30" as="geometry"/>
                </mxCell>
                <mxCell id="87" value="N" style="text;html=1;align=center;verticalAlign=middle;resizable=0;points=[];autosize=1;strokeColor=none;fillColor=none;" vertex="1" parent="1">
                    <mxGeometry x="-216" y="412" width="30" height="30" as="geometry"/>
                </mxCell>
                <mxCell id="88" value="" style="curved=1;endArrow=classic;html=1;entryX=1;entryY=0.75;entryDx=0;entryDy=0;exitX=1;exitY=0.75;exitDx=0;exitDy=0;" edge="1" parent="1" source="23" target="20">
                    <mxGeometry width="50" height="50" relative="1" as="geometry">
                        <mxPoint x="-430" y="820" as="sourcePoint"/>
                        <mxPoint x="-213.83999999999992" y="407.8600000000001" as="targetPoint"/>
                        <Array as="points">
                            <mxPoint x="-130" y="800"/>
                            <mxPoint x="-130" y="600"/>
                            <mxPoint x="-130" y="540"/>
                            <mxPoint x="-130" y="430"/>
                            <mxPoint x="-150" y="400"/>
                        </Array>
                    </mxGeometry>
                </mxCell>
                <mxCell id="89" value="N" style="text;html=1;align=center;verticalAlign=middle;resizable=0;points=[];autosize=1;strokeColor=none;fillColor=none;" vertex="1" parent="1">
                    <mxGeometry x="-150" y="390" width="30" height="30" as="geometry"/>
                </mxCell>
                <mxCell id="90" value="N" style="text;html=1;align=center;verticalAlign=middle;resizable=0;points=[];autosize=1;strokeColor=none;fillColor=none;" vertex="1" parent="1">
                    <mxGeometry x="-440" y="820" width="30" height="30" as="geometry"/>
                </mxCell>
            </root>
        </mxGraphModel>
    </diagram>
</mxfile>